# xmcd
#
# Track frame offsets: 
#        150
#        12157
#        24408
#        36169
#        50431
#        63856
#        74524
#        87788
#        101480
#        114503
#        128771
#        140956
#        154492
#        166902
#        180368
#        192368
#        207293
#        220892
#        232595
#        244302
#        257705
#        272479
#        284934
#        298850
#        311575
#        324612
#        335105
#        346856
#
# Disc length: 4821 seconds
#
# Revision: 2
# Processed by: cddbd v1.5.2PL0 Copyright (c) Steve Scherf et al.
# Submitted via: ExactAudioCopy v1.0b1
#
DISCID=ab12d31c
DTITLE=Various Artist - Country and Western Hit Parade 1948
DYEAR=2008
DGENRE=Country
TTITLE0=Red Foley - Tennessee Saturday Night
TTITLE1=Leon Payne - Lost Highway
TTITLE2=Roy Acuff - Waltz Of The Wind
TTITLE3=The Maddox Brothers and Rose - New Muleskinner Blues
TTITLE4=Eddie Hill - Someday You'll Call My Name
TTITLE5=Johnny Bond - Bartender's Blues
TTITLE6=Eddy Arnold - Anytime
TTITLE7=Bill Monroe - Little Cabin Home On The Hill
TTITLE8=Cowboy Copas - Breeze
TTITLE9=Bill Carlisle - Wedding Bells
TTITLE10=Hawkshaw Hawkins - Dog House Boogie
TTITLE11=Pee Wee King - Tennessee Waltz
TTITLE12=Doye O'Dell - Dear Okie
TTITLE13=Moon Mullican - Sweeter Than The Flowes
TTITLE14=Wayne Raney - Lost John Boogie
TTITLE15=Jimmie Skinner - Doin' My Time
TTITLE16=Bill Monroe - I Hear A Sweet Voice Calling
TTITLE17=Stanley Brothers - Molly And Tenbrook
TTITLE18=Hank Williams - A Mansion On The Hill
TTITLE19=Jimmy Work - Tennessee Border
TTITLE20=T. Texas Tyler - Deck Of Cards
TTITLE21=Floyd Tillman - I Love You So Much It Hurts
TTITLE22=Merle Travis - Merle's Boogie Woogie
TTITLE23=Jimmy Wakely - One Has My Name (The Other Has My  Heart)
TTITLE24=Carson Robinson - Life Gits Tee-Jus, Don't It
TTITLE25=Bob Wills - Bubbles In My Beer
TTITLE26=Eddy Arnold - Bouquet Of Roses
TTITLE27=Lonzo and Oscar - I'm My Own Grandpa
EXTD=
EXTT0=
EXTT1=
EXTT2=
EXTT3=
EXTT4=
EXTT5=
EXTT6=
EXTT7=
EXTT8=
EXTT9=
EXTT10=
EXTT11=
EXTT12=
EXTT13=
EXTT14=
EXTT15=
EXTT16=
EXTT17=
EXTT18=
EXTT19=
EXTT20=
EXTT21=
EXTT22=
EXTT23=
EXTT24=
EXTT25=
EXTT26=
EXTT27=
PLAYORDER=
